# xmcd CD database file
# Copyright (C) 1993-1996 Ti Kan
#
# Track frame offsets:
#  150
#  11690
#  27355
#  40055
#  51377
#  72832
#  87732
#  106805
#  127172
#  150190
#
# Disc length: 2158 seconds
#
# Revision: 2
# Processed by: cddbd v1.5.2PL0 Copyright (c) Steve Scherf et al.
# Submitted via: Advanced CD Ripper Pro 2.0
#
DISCID=7f086c0a
DTITLE=Kenny Rogers - Share Your Love
DYEAR=1981
DGENRE=Country
TTITLE0=Blaze Of Glory
TTITLE1=I Don't Need You
TTITLE2=The Good Life
TTITLE3=Make Me Wonder If I Ever Said Goodbye
TTITLE4=Through The Years
TTITLE5=Share Your Love With Me
TTITLE6=So In Love With You
TTITLE7=Goin' Back To Alabama
TTITLE8=Without You In My Life
TTITLE9=Greybeard
EXTD=
EXTT0=
EXTT1=
EXTT2=
EXTT3=
EXTT4=
EXTT5=
EXTT6=
EXTT7=
EXTT8=
EXTT9=
PLAYORDER=
